<?xml version="1.0" encoding="UTF-8"?>
<svg width="100%" height="100%" viewBox="0 0 800 800" xmlns="http://www.w3.org/2000/svg">
 <g transform="translate(0 -252.36)" fill="#5fbf00" shape-rendering="auto">
  <path d="m400 252.36a400 400 0 0 0 -400 400 400 400 0 0 0 400 400 400 400 0 0 0 400 -400 400 400 0 0 0 -400 -400zm0 35.05a364.95 364.95 0 0 1 364.95 364.95 364.95 364.95 0 0 1 -364.95 364.95 364.95 364.95 0 0 1 -364.95 -364.95 364.95 364.95 0 0 1 364.95 -364.95z" color="#000000" color-rendering="auto" image-rendering="auto" solid-color="#000000" style="isolation:auto;mix-blend-mode:normal"/>
  <g transform="matrix(8.1646 0 0 8.1646 -3344.3 -4271.7)">
   <rect x="457.86" y="562.5" width="2.9911" height="6.25" ry="1.4955" color="#000000" color-rendering="auto" image-rendering="auto" solid-color="#000000" style="isolation:auto;mix-blend-mode:normal"/>
   <rect transform="matrix(.96658 .25637 -.25637 .96658 0 0)" x="597.27" y="424.77" width="2.9911" height="6.25" ry="1.4955" color="#000000" color-rendering="auto" image-rendering="auto" solid-color="#000000" style="isolation:auto;mix-blend-mode:normal"/>
   <rect transform="matrix(.86863 .49546 -.49546 .86863 0 0)" x="696.66" y="256.01" width="2.9911" height="6.25" ry="1.4955" color="#000000" color-rendering="auto" image-rendering="auto" solid-color="#000000" style="isolation:auto;mix-blend-mode:normal"/>
   <rect transform="matrix(.71627 .69782 -.69782 .71627 0 0)" x="748.94" y="71.26" width="2.9911" height="6.25" ry="1.4955" color="#000000" color-rendering="auto" image-rendering="auto" solid-color="#000000" style="isolation:auto;mix-blend-mode:normal"/>
   <rect transform="matrix(.51794 .85542 -.85542 .51794 0 0)" x="753.11" y="-120.71" width="2.9911" height="6.25" ry="1.4955" color="#000000" color-rendering="auto" image-rendering="auto" solid-color="#000000" style="isolation:auto;mix-blend-mode:normal"/>
   <rect transform="matrix(.27457 .96157 -.96157 .27457 0 0)" x="705.58" y="-316.28" width="2.9911" height="6.25" ry="1.4955" color="#000000" color-rendering="auto" image-rendering="auto" solid-color="#000000" style="isolation:auto;mix-blend-mode:normal"/>
   <rect transform="matrix(.029834 .99955 -.99955 .029834 0 0)" x="616.29" y="-481.41" width="2.9911" height="6.25" ry="1.4955" color="#000000" color-rendering="auto" image-rendering="auto" solid-color="#000000" style="isolation:auto;mix-blend-mode:normal"/>
   <rect transform="matrix(.86358 -.50422 .50422 .86358 0 0)" x="90.972" y="711.36" width="2.9911" height="6.25" ry="1.4955" color="#000000" color-rendering="auto" image-rendering="auto" solid-color="#000000" style="isolation:auto;mix-blend-mode:normal"/>
   <rect transform="matrix(.96599 -.25857 .25857 .96599 0 0)" x="286.2" y="660.54" width="2.9911" height="6.25" ry="1.4955" color="#000000" color-rendering="auto" image-rendering="auto" solid-color="#000000" style="isolation:auto;mix-blend-mode:normal"/>
   <rect transform="matrix(.48986 -.8718 .8718 .48986 0 0)" x="-302.26" y="654.35" width="2.9911" height="6.25" ry="1.4955" color="#000000" color-rendering="auto" image-rendering="auto" solid-color="#000000" style="isolation:auto;mix-blend-mode:normal"/>
   <rect transform="matrix(.69699 -.71708 .71708 .69699 0 0)" x="-113.9" y="708.43" width="2.9911" height="6.25" ry="1.4955" color="#000000" color-rendering="auto" image-rendering="auto" solid-color="#000000" style="isolation:auto;mix-blend-mode:normal"/>
   <rect transform="matrix(-.016549 -.99986 .99986 -.016549 0 0)" x="-611.77" y="407.43" width="2.9911" height="6.25" ry="1.4955" color="#000000" color-rendering="auto" image-rendering="auto" solid-color="#000000" style="isolation:auto;mix-blend-mode:normal"/>
   <rect transform="matrix(.24778 -.96882 .96882 .24778 0 0)" x="-471.82" y="552.73" width="2.9911" height="6.25" ry="1.4955" color="#000000" color-rendering="auto" image-rendering="auto" solid-color="#000000" style="isolation:auto;mix-blend-mode:normal"/>
  </g>
  <path d="m592.77 533.98-187.85 143.27c-5.6586 3.7067-13.339 1.9196-17.046-3.739l-4.8518-7.4067c-3.7067-5.6586-2.1353-13.198 3.5233-16.905z" color="#000000" color-rendering="auto" image-rendering="auto" solid-color="#000000" style="isolation:auto;mix-blend-mode:normal"/>
 </g>
</svg>
