<?xml version="1.0"?>
<svg width="507.99631" height="486.46461" xmlns="http://www.w3.org/2000/svg" xmlns:svg="http://www.w3.org/2000/svg">
 <g class="layer">
  <title>Layer 1</title>
  <g id="svg_26">
   <g id="svg_1">
    <path d="m339.42,124.44c-1.49,1.76 -3.37,3.14 -5.5,4.02l-6.09,6.87l-17.28,20.86l-11.67,7.06l-5.42,-9.33l25.58,-24.92l7.13,-7.25c0.57,-2.23 1.67,-4.3 3.2,-6.02c3.78,-4.37 9.09,-5.95 11.87,-3.55c2.77,2.4 1.96,7.89 -1.82,12.26z" fill="#ffafaf" id="svg_2"/>
    <path d="m235.01,145.16l11.23,-18.7l47.79,20.53l26.13,-21.34s10.36,8.93 10.73,9.25s-26.35,37.32 -28.24,37.27c-1.9,-0.04 -67.64,-27.01 -67.64,-27.01z" fill="#dedede" id="svg_3"/>
   </g>
   <path d="m505.15,440.19c0,0 -49.36,-144.54 -161.7,-181.29c-112.34,-36.75 -381.49,-25.69 -226.32,140.7c155.18,166.39 388.01,40.59 388.01,40.59z" fill="#5fbf00" id="svg_25"/>
   <path d="m174.36,407.49c0,0.79 0.21,1.43 0.48,1.43l202.74,0c0.26,0 0.48,-0.64 0.48,-1.43c0,-0.79 -0.21,-1.43 -0.48,-1.43l-202.74,0c-0.26,0 -0.48,0.64 -0.48,1.43z" fill="#3f3d58" id="svg_4"/>
   <g id="svg_5">
    <path d="m342.88,2c34.02,0 61.7,25.97 61.7,57.9c0,8.92 -2.22,17.79 -6.44,25.75l0.05,0l-1.12,1.94c-9.47,16.32 -14.74,34.92 -15.22,53.76c-0.14,5.74 -4.76,10.24 -10.51,10.24l-48.08,0c-6.2,0 -11.39,-4.44 -12.37,-10.56c-2.37,-14.89 -7.11,-29.24 -14.08,-42.64c-10.08,-10.62 -15.64,-24.28 -15.64,-38.51c0,-31.92 27.68,-57.9 61.7,-57.9zm52.7,84.8l0.4,-0.72c4.52,-8.03 6.91,-17.08 6.91,-26.19c0,-30.99 -26.92,-56.21 -60.01,-56.21s-60.01,25.21 -60.01,56.21c0,13.83 5.42,27.12 15.26,37.44l0.14,0.19c7.09,13.59 11.9,28.15 14.3,43.25c0.85,5.29 5.34,9.14 10.7,9.14l48.08,0c4.83,0 8.7,-3.78 8.82,-8.6c0.48,-19.11 5.81,-37.96 15.41,-54.52z" fill="#3f3d56" id="svg_6"/>
    <path d="m378,147.38l-63.48,0c-2.02,0 -3.61,1.73 -3.42,3.74l0.59,6.53c0.5,5.48 2.23,10.77 5.05,15.48l0,0c0.47,0.79 1.36,1.22 2.27,1.11c18.81,-2.27 37.22,-2.34 55.18,-0.03c0.98,0.13 1.94,-0.37 2.38,-1.26l0.41,-0.81c2.04,-4.07 3.3,-8.49 3.71,-13.02l0.73,-8c0.18,-2.01 -1.4,-3.74 -3.42,-3.74z" fill="#3f3d56" id="svg_7"/>
    <path d="m320.91,169.78l51.98,0l0,33.83c0,6.05 -4.91,10.96 -10.96,10.96l-30.06,0c-6.05,0 -10.96,-4.91 -10.96,-10.96l0,-33.83l0,0z" fill="#3f3d56" id="svg_8"/>
    <path d="m353.58,223.45l-11.27,0c-1.23,0 -2.4,-0.6 -3.12,-1.61l-7.3,-10.23l32.12,0l-7.3,10.23c-0.73,1.01 -1.88,1.61 -3.13,1.61z" fill="#3f3d56" id="svg_9"/>
    <path d="m362.11,31.86c-8.27,1.71 -16.54,3.42 -24.82,5.13c-3.72,0.78 -7.89,1.17 -11.26,3.03c-3.28,1.79 -5.58,5.54 -4.4,9.31c1.12,3.59 4.42,5.85 7.97,6.65c3.93,0.89 8.14,0.88 12.15,1.19c4.18,0.32 8.36,0.64 12.53,0.96c1.99,0.15 3.99,0.26 5.98,0.46c0.63,0.07 1.33,0.14 1.85,0.55c-0.01,-0.01 0.18,0.11 0.08,0.13c-0.03,0 -0.03,-0.14 -0.03,-0.14c0.08,-0.25 0.05,-0.01 -0.02,-0.01c-0.02,0 -0.62,0.39 -0.96,0.46c-0.9,0.17 -1.89,0.04 -2.81,0.03c-1.99,-0.03 -3.97,0.01 -5.95,0.12c-3.99,0.21 -7.97,0.71 -11.89,1.46c-3.85,0.74 -7.69,1.72 -11.4,3.03c-3.59,1.27 -7.35,3.69 -7.45,7.94c-0.09,4.01 3.37,6.81 6.91,7.82c1.82,0.52 3.74,0.7 5.6,0.98c2.08,0.31 4.16,0.62 6.24,0.93c4.09,0.61 8.18,1.22 12.27,1.83c2.08,0.3 4.16,0.62 6.24,0.93c0.97,0.14 1.94,0.26 2.92,0.43c0.35,0.06 0.68,0.17 1.04,0.25c-0.24,-0.05 0.06,-0.05 0.01,0.01c0.15,0.09 0.15,0.08 0,-0.04l-0.1,-0.16c-0.24,-0.67 -0.23,-0.75 0.2,-1.55c0.08,-0.15 0.25,0.01 0.03,-0.02c-0.23,-0.03 0.14,-0.03 -0.1,0.07c-0.13,0.05 -0.25,0.08 -0.39,0.12c-0.96,0.27 -1.97,0.41 -2.95,0.6c-2.04,0.41 -4.07,0.8 -6.11,1.2c-4.01,0.79 -8.01,1.57 -12.02,2.36c-7.06,1.39 -14.55,3.26 -18.79,9.64c-0.91,1.39 -1.59,2.98 -1.92,4.61c-0.27,1.34 0.39,2.74 1.77,3.12c1.25,0.35 2.84,-0.42 3.12,-1.77c1.34,-6.54 8.49,-8.89 14.39,-10.14c3.9,-0.83 7.83,-1.55 11.74,-2.32c3.95,-0.78 7.95,-1.4 11.87,-2.33c1.64,-0.4 3.42,-1.4 3.89,-3.16c0.5,-1.92 -0.45,-3.77 -2.19,-4.67c-1.67,-0.85 -3.65,-0.92 -5.48,-1.19c-2,-0.3 -4.01,-0.6 -6.03,-0.9c-4.09,-0.61 -8.18,-1.22 -12.27,-1.83c-2.01,-0.3 -4.01,-0.6 -6.03,-0.9c-1.87,-0.27 -3.78,-0.46 -5.6,-0.98c-1.23,-0.35 -2.49,-0.95 -3.03,-2.12c-0.18,-0.37 -0.22,-0.65 -0.1,-1.07c0.17,-0.58 0.63,-1.12 1.13,-1.53c1.17,-0.92 2.76,-1.34 4.14,-1.78c1.83,-0.58 3.68,-1.11 5.54,-1.56c3.7,-0.91 7.45,-1.58 11.25,-1.94c1.97,-0.19 3.96,-0.32 5.94,-0.37c1.88,-0.04 3.75,0.07 5.63,0.01c1.99,-0.06 4.05,-0.59 5.43,-2.14c1.41,-1.6 1.75,-3.77 0.77,-5.68c-1.94,-3.79 -7.09,-3.41 -10.68,-3.69c-4.11,-0.31 -8.22,-0.63 -12.32,-0.95c-3.85,-0.3 -7.8,-0.36 -11.6,-0.96c-1.41,-0.22 -3.04,-0.62 -4.11,-1.46c-0.97,-0.77 -1.61,-1.77 -1.53,-2.79c0.08,-0.95 1.04,-1.99 2.05,-2.56c1.41,-0.81 3.08,-1.12 4.66,-1.45c8.11,-1.69 16.25,-3.36 24.37,-5.05c1.99,-0.41 4,-0.83 5.99,-1.24c1.34,-0.28 2.12,-1.86 1.77,-3.12c-0.39,-1.39 -1.77,-2.05 -3.12,-1.77l0,0z" fill="#5fbf00" id="svg_10"/>
   </g>
   <rect fill="#ffafaf" height="32.24" id="svg_11" width="16.61" x="238.91" y="112.72"/>
   <path d="m282.95,202.57l-40.06,-2.93s-16.61,38.1 -3.9,62.53l8.79,50.81l-3.47,83.63l18.2,0l28.27,-134.43l-7.82,-59.6z" fill="#2f2e41" id="svg_12"/>
   <polygon fill="#2f2e41" id="svg_13" points="275.12994384765625,245.2488555908203 290.762939453125,258.8558654785156 282.9464416503906,392.1207580566406 265.35931396484375,392.1207580566406 275.12994384765625,245.2488555908203 "/>
   <circle cx="246.99" cy="98.3" fill="#ffafaf" id="svg_14" r="20.77"/>
   <path d="m244.51,376.76l21.45,3.39l4.03,15.39s17.42,6.55 9.03,13.68c-8.39,7.13 -39.4,3.44 -41.85,-1.67s7.34,-30.78 7.34,-30.78z" fill="#2f2e41" id="svg_15"/>
   <path d="m262.1,376.76l21.45,3.39l4.03,15.39s17.42,6.55 9.03,13.68c-8.39,7.13 -39.4,3.44 -41.85,-1.67c-2.45,-5.11 7.34,-30.78 7.34,-30.78z" fill="#2f2e41" id="svg_16"/>
   <path d="m321.35,199.27c-2.31,0.03 -4.58,-0.5 -6.64,-1.54l-9.18,-0.14l-27.08,0.52l-12.97,-4.23l3.53,-10.19l35.58,3.12l10.14,0.67c2.07,-1.03 4.35,-1.55 6.66,-1.5c5.76,0.01 10.44,3 10.43,6.67c-0.02,3.68 -4.7,6.64 -10.47,6.63z" fill="#ffafaf" id="svg_17"/>
   <path d="m257.06,124.9l-20.56,0l-6.8,20.51l13.19,54.23l40.06,2.93l-2.44,-21.98l0,0c4.72,-7.68 4.35,-17.46 -0.96,-24.77l-22.49,-30.93z" fill="#dedede" id="svg_18"/>
   <path d="m237.52,133.69l21.49,-3.69l15.63,49.61l33.23,5.87l0,14.17c0,0.49 -45.47,4.4 -46.67,2.93c-1.21,-1.47 -23.67,-68.89 -23.67,-68.89z" fill="#dedede" id="svg_19"/>
   <path d="m257.36,86.26c2.55,4.13 0.2,9.58 -2.94,13.3s-7.19,6.96 -8.6,11.62c-1.26,4.18 -0.12,8.67 1.36,12.77c1.48,4.1 3.32,8.19 3.47,12.54c0.15,4.36 -1.91,9.17 -6.01,10.64c-4.21,1.51 -9.19,-0.86 -13.24,1.02c-5.28,2.46 -6.48,10.96 -12.24,11.85c-3.55,0.54 -6.83,-2.54 -7.82,-5.98c-1,-3.45 -0.28,-7.13 0.43,-10.64c1.96,-9.63 3.93,-19.25 5.89,-28.87c1.63,-8.01 3.26,-16.03 4.89,-24.03c0.97,-4.78 2.13,-9.9 5.72,-13.2c4.4,-4.03 11.01,-4.13 16.97,-3.89c5.48,0.22 11.17,0.6 15.93,3.3c4.77,2.7 8.27,8.45 6.62,13.68c-1.54,-3.68 -6.14,-5.74 -9.91,-4.45" fill="#2f2e41" id="svg_20"/>
  </g>
 </g>
</svg>